<svg xmlns="http://www.w3.org/2000/svg" viewBox="0 0 512 512" width="512" height="512">
  <defs>
    <radialGradient id="bg" cx="50%" cy="42%" r="75%">
      <stop offset="0%" stop-color="#fef4f7"/>
      <stop offset="100%" stop-color="#fbe4ec"/>
    </radialGradient>
    <radialGradient id="chL" cx="38%" cy="30%" r="80%">
      <stop offset="0%" stop-color="#fbd0dd"/>
      <stop offset="50%" stop-color="#f0a8c2"/>
      <stop offset="100%" stop-color="#df87a7"/>
    </radialGradient>
    <radialGradient id="chR" cx="40%" cy="30%" r="82%">
      <stop offset="0%" stop-color="#dd6691"/>
      <stop offset="48%" stop-color="#c44a74"/>
      <stop offset="100%" stop-color="#a23360"/>
    </radialGradient>
    <linearGradient id="chLf" x1="0" y1="0" x2="1" y2="1">
      <stop offset="0%" stop-color="#7e5365"/>
      <stop offset="100%" stop-color="#5d3849"/>
    </linearGradient>
  </defs>
  <rect x="0" y="0" width="512" height="512" rx="115" fill="url(#bg)"/>
  <path d="M212 280 C196 200 188 150 246 118" stroke="#6b4554" stroke-width="15" stroke-linecap="round" fill="none"/>
  <path d="M306 272 C292 196 270 150 256 122" stroke="#6b4554" stroke-width="15" stroke-linecap="round" fill="none"/>
  <path d="M256 122 C256 122 314 86 392 112 C362 165 290 165 256 122 Z" fill="url(#chLf)"/>
  <circle cx="198" cy="350" r="92" fill="url(#chL)"/>
  <circle cx="318" cy="356" r="106" fill="url(#chR)"/>
  <ellipse cx="166" cy="312" rx="22" ry="15" fill="#fff" opacity=".5"/>
  <ellipse cx="288" cy="318" rx="24" ry="16" fill="#fff" opacity=".42"/>
</svg>
